<svg width="157" height="77" viewBox="0 0 157 77" fill="none" xmlns="http://www.w3.org/2000/svg">
<path d="M13.489 24.3693L4.01499 13.4645V24.3693H0V0H4.01499V11.1152L13.5242 0H18.5605L7.92432 12.2022L18.7366 24.3693H13.489Z" fill="white"/>
<path d="M74.6581 0C77.2643 0 79.5418 0.502581 81.4906 1.50774C83.4629 2.48953 84.9773 3.91545 86.0339 5.78552C87.1139 7.63221 87.654 9.79448 87.654 12.2723C87.654 14.7502 87.1139 16.9007 86.0339 18.724C84.9773 20.5474 83.4629 21.9499 81.4906 22.9317C79.5418 23.8901 77.2643 24.3693 74.6581 24.3693H66.6633V0H74.6581ZM74.6581 21.1084C77.5226 21.1084 79.7179 20.337 81.2441 18.7942C82.7702 17.2514 83.5333 15.0774 83.5333 12.2723C83.5333 9.44384 82.7702 7.23482 81.2441 5.64527C79.7179 4.05571 77.5226 3.26093 74.6581 3.26093H70.6783V21.1084H74.6581Z" fill="white"/>
<path d="M144.004 0C146.61 0 148.888 0.502581 150.837 1.50774C152.809 2.48953 154.323 3.91545 155.38 5.78552C156.46 7.63221 157 9.79448 157 12.2723C157 14.7502 156.46 16.9007 155.38 18.724C154.323 20.5474 152.809 21.9499 150.837 22.9317C148.888 23.8901 146.61 24.3693 144.004 24.3693H136.009V0H144.004ZM144.004 21.1084C146.869 21.1084 149.064 20.337 150.59 18.7942C152.116 17.2514 152.879 15.0774 152.879 12.2723C152.879 9.44384 152.116 7.23482 150.59 5.64527C149.064 4.05571 146.869 3.26093 144.004 3.26093H140.024V21.1084H144.004Z" fill="white"/>
<path d="M94.7706 52.5956L87.5154 76.9649H82.9722L77.8301 58.5214L72.3712 76.9649L67.8631 77L60.9249 52.5956H65.1865L70.258 72.4417L75.7522 52.5956H80.2603L85.3671 72.3365L90.4738 52.5956H94.7706Z" fill="white"/>
</svg>
